<svg xmlns="http://www.w3.org/2000/svg" xmlns:xlink="http://www.w3.org/1999/xlink" xmlns:serif="http://www.serif.com/" viewBox="0 0 256 320" version="1.1" xml:space="preserve" style="" x="0px" y="0px" fill-rule="evenodd" clip-rule="evenodd" stroke-linejoin="round" stroke-miterlimit="2"><g transform="matrix(1,0,0,1,-612,-658)"><g transform="matrix(1,0,0,1,-3060,658)"><rect x="3672" y="0" width="256" height="256" style="" fill="none"/><g><g transform="matrix(-1.96667,0,0,1.96667,4006.5,-1317.5)"><path d="M46.78,705L46.78,765C46.78,765.982 45.982,766.78 45,766.78C44.018,766.78 43.22,765.982 43.22,765L43.22,705C43.22,704.018 44.018,703.22 45,703.22C45.982,703.22 46.78,704.018 46.78,705Z"/></g><g transform="matrix(-1.96667,0,0,0.655556,3977,-353.833)"><path d="M46.78,705L46.78,765C46.78,767.947 45.982,770.339 45,770.339C44.018,770.339 43.22,767.947 43.22,765L43.22,705C43.22,702.053 44.018,699.661 45,699.661C45.982,699.661 46.78,702.053 46.78,705Z"/></g><g transform="matrix(-1.96667,0,0,3.21222,3947.5,-2232.98)"><path d="M46.78,705L46.78,765C46.78,765.601 45.982,766.09 45,766.09C44.018,766.09 43.22,765.601 43.22,765L43.22,705C43.22,704.399 44.018,703.91 45,703.91C45.982,703.91 46.78,704.399 46.78,705Z"/></g><g transform="matrix(-1.96667,0,0,1.63889,3918,-1076.58)"><path d="M46.78,705L46.78,765C46.78,766.179 45.982,767.136 45,767.136C44.018,767.136 43.22,766.179 43.22,765L43.22,705C43.22,703.821 44.018,702.864 45,702.864C45.982,702.864 46.78,703.821 46.78,705Z"/></g><g transform="matrix(-1.96667,0,0,0.655556,3888.5,-353.833)"><path d="M46.78,705L46.78,765C46.78,767.947 45.982,770.339 45,770.339C44.018,770.339 43.22,767.947 43.22,765L43.22,705C43.22,702.053 44.018,699.661 45,699.661C45.982,699.661 46.78,702.053 46.78,705Z"/></g><g transform="matrix(-1.96667,0,0,1.37667,3859,-883.85)"><path d="M46.78,705L46.78,765C46.78,766.403 45.982,767.542 45,767.542C44.018,767.542 43.22,766.403 43.22,765L43.22,705C43.22,703.597 44.018,702.458 45,702.458C45.982,702.458 46.78,703.597 46.78,705Z"/></g><g transform="matrix(-1.96667,0,0,2.55667,3829.5,-1751.15)"><path d="M46.78,705L46.78,765C46.78,765.756 45.982,766.369 45,766.369C44.018,766.369 43.22,765.756 43.22,765L43.22,705C43.22,704.244 44.018,703.631 45,703.631C45.982,703.631 46.78,704.244 46.78,705Z"/></g><g transform="matrix(-1.96667,0,0,1.37667,3800,-883.85)"><path d="M46.78,705L46.78,765C46.78,766.403 45.982,767.542 45,767.542C44.018,767.542 43.22,766.403 43.22,765L43.22,705C43.22,703.597 44.018,702.458 45,702.458C45.982,702.458 46.78,703.597 46.78,705Z"/></g><g transform="matrix(-1.96667,0,0,0.655556,3770.5,-353.833)"><path d="M46.78,705L46.78,765C46.78,767.947 45.982,770.339 45,770.339C44.018,770.339 43.22,767.947 43.22,765L43.22,705C43.22,702.053 44.018,699.661 45,699.661C45.982,699.661 46.78,702.053 46.78,705Z"/></g></g></g></g><text x="0" y="271" fill="#000000" font-size="5px" font-weight="bold" font-family="'Helvetica Neue', Helvetica, Arial-Unicode, Arial, Sans-serif">Created by Andri Graphic</text><text x="0" y="276" fill="#000000" font-size="5px" font-weight="bold" font-family="'Helvetica Neue', Helvetica, Arial-Unicode, Arial, Sans-serif">from the Noun Project</text></svg>